<svg width="88" height="54" viewBox="0 0 88 54" fill="none" xmlns="http://www.w3.org/2000/svg">
<path d="M0 0H88V31.0316C88 36.1706 83.8376 40.3366 78.7035 40.3366H9.29639C4.16213 40.3366 0 36.1706 0 31.0316V0Z" fill="#F51047"/>
<path d="M73.8486 16.1599C74.7285 16.575 75.4592 17.2587 75.9355 18.1127C76.4084 19.018 76.657 20.0274 76.657 21.0508C76.657 21.1101 76.6566 21.1716 76.6549 21.23V27.0367L76.3563 27.64L75.8054 27.9137H74.4095L73.8064 27.6084L73.3706 27.0589V25.9478C72.9903 26.5809 72.4243 27.0994 71.7612 27.4174C71.0593 27.7403 70.294 27.9087 69.5216 27.9087C69.4824 27.9087 69.4423 27.9081 69.4044 27.9074C69.3694 27.9081 69.3322 27.9087 69.2968 27.9087C68.5682 27.9087 67.8496 27.7377 67.1973 27.4108C65.9741 26.8042 65.1992 25.5486 65.1992 24.1746C65.1992 24.154 65.1996 24.1328 65.1996 24.1125C65.1996 24.096 65.1992 24.0782 65.1992 24.0613C65.1992 23.3947 65.3856 22.7411 65.736 22.1761C66.1105 21.5925 66.6414 21.1271 67.267 20.8341C67.9539 20.5172 68.7029 20.3531 69.4586 20.3531C69.4932 20.3531 69.5295 20.3537 69.5637 20.3543C71.2482 20.3543 72.5081 20.9068 73.3422 22.0119V21.5421C73.3422 21.529 73.3427 21.5144 73.3427 21.5011C73.3427 20.8768 73.1662 20.2647 72.8359 19.7372C72.5098 19.2473 72.0456 18.8653 71.5047 18.6397C70.9241 18.3978 70.3011 18.2729 69.673 18.2729C69.6405 18.2729 69.6058 18.2735 69.5737 18.274C68.5061 18.2766 67.4697 18.5912 66.5851 19.1679C66.1614 19.444 65.7789 19.1328 65.7789 18.8106C65.7789 18.2987 65.6113 17.0539 66.0871 16.7775C67.3646 16.0345 68.9069 15.4938 70.3887 15.4938C70.4425 15.4938 70.5 15.4948 70.553 15.4957C70.613 15.4941 70.676 15.4932 70.7369 15.4932C71.8012 15.4932 72.8797 15.7168 73.8486 16.1599ZM72.0673 25.515C72.4322 25.3796 72.7559 25.1473 73.0028 24.844C73.2175 24.5853 73.3356 24.2584 73.3356 23.9211C73.3356 23.9167 73.3356 23.912 73.3356 23.9076C73.3356 23.905 73.3356 23.9021 73.3356 23.8994C73.3356 23.5767 73.2238 23.2637 73.0194 23.0151C72.7771 22.7313 72.4648 22.5168 72.1136 22.3944C71.6995 22.2458 71.2615 22.1691 70.8216 22.1691C70.8015 22.1691 70.7815 22.1696 70.7623 22.1696C70.7398 22.1692 70.7152 22.1688 70.6923 22.1688C70.276 22.1688 69.8632 22.2457 69.474 22.3945C69.1458 22.5194 68.8597 22.7361 68.6487 23.0184C68.4623 23.2775 68.3618 23.5897 68.3618 23.9098C68.3618 23.9191 68.3622 23.9287 68.3622 23.9379C68.3622 23.9452 68.3622 23.953 68.3622 23.9604C68.3622 24.2863 68.4598 24.6048 68.6416 24.8739C68.8468 25.1593 69.1287 25.3797 69.454 25.5082C69.8302 25.6572 70.2318 25.7339 70.6364 25.7339C70.6614 25.7339 70.6877 25.7336 70.7123 25.7332C70.7331 25.733 70.7552 25.7335 70.7769 25.7335C71.2165 25.7335 71.6561 25.6705 72.0673 25.515Z" fill="white"/>
<path d="M74.8366 27.914H74.043C73.7122 27.9107 73.4299 27.8444 73.3711 27.4809L73.3723 26.8418H74.8366V27.914Z" fill="white"/>
<path d="M75.1475 27.914H75.9653C76.306 27.9107 76.5967 27.8444 76.6572 27.4809L76.6559 26.8418H75.1475V27.914Z" fill="white"/>
<path d="M13.5615 27.5372C11.3781 26.8141 11.064 26.9259 11.0004 25.8531L11.0002 24.6522C11.0145 24.1626 11.2506 23.9374 11.7459 24.2538C12.2819 24.5962 12.8277 24.8201 13.4341 25.0128C14.352 25.3045 15.3091 25.4631 16.2724 25.4654C16.3285 25.4682 16.3865 25.4699 16.4435 25.4699C16.9468 25.4699 17.4432 25.3527 17.8939 25.1279C18.2268 24.9548 18.4365 24.6102 18.4382 24.2338C18.438 24.2298 18.4381 24.2252 18.4381 24.2211C18.4381 23.9594 18.3396 23.7069 18.1627 23.515C17.8554 23.2481 17.4814 23.0696 17.0815 22.9988L14.5324 22.3914C13.283 22.081 12.3831 21.6558 11.8456 21.1058C11.3086 20.5809 11 19.8648 11 19.1121C11 19.096 11.0004 19.0791 11.0004 19.0634C11.0004 19.0559 11.0004 19.0482 11.0004 19.0405C11.0004 18.3668 11.2444 17.7093 11.6777 17.1957C12.1841 16.6137 12.8393 16.1804 13.5715 15.9436C14.4476 15.6462 15.3688 15.4932 16.294 15.4932C16.351 15.4932 16.411 15.4942 16.467 15.4952C16.5164 15.495 16.5715 15.4937 16.6229 15.4937C17.493 15.4937 18.8739 15.6903 19.709 15.9342C21.1848 16.3651 21.2903 16.4292 21.338 17.3973L21.3198 18.5507C21.307 18.8637 20.9807 19.0426 20.5249 18.8156C20.0785 18.5934 19.7372 18.4491 19.2608 18.3022C18.4744 18.0595 17.653 17.9343 16.8297 17.9343C16.8166 17.9343 16.8025 17.9343 16.7893 17.9343C16.7162 17.9305 16.6418 17.9284 16.5684 17.9284C16.0479 17.9284 15.5319 18.0296 15.0495 18.2248C14.7122 18.3521 14.4848 18.6724 14.4753 19.0345C14.4785 19.3139 14.6295 19.5712 14.8716 19.7092C15.2805 19.9318 15.7261 20.0879 16.1848 20.1681L18.4686 20.6708C19.4258 20.8177 20.3285 21.2223 21.0778 21.8383C21.6475 22.391 21.9695 23.1532 21.9695 23.9493C21.9695 24.0069 21.9677 24.065 21.9646 24.1223C21.9645 24.1413 21.9648 24.1621 21.9648 24.1813C21.9648 24.8765 21.7404 25.5533 21.3262 26.1097C20.8458 26.7218 20.1993 27.1837 19.4659 27.4392C18.5907 27.7524 17.667 27.9137 16.7375 27.9137C16.6771 27.9137 16.6136 27.9127 16.5542 27.9116C16.5134 27.911 16.4657 27.9124 16.4236 27.9124C15.4585 27.9124 14.4947 27.7853 13.5623 27.5377L13.5615 27.5372Z" fill="white"/>
<path d="M27.0535 27.0835C26.0641 26.5723 25.2364 25.7912 24.6678 24.8311C24.1234 23.8938 23.8351 22.8253 23.8351 21.7394C23.8351 21.7117 23.8358 21.6832 23.8358 21.6562C23.8357 21.6259 23.835 21.5934 23.835 21.5623C23.835 20.4829 24.1232 19.4213 24.6682 18.4914C25.2384 17.5467 26.0667 16.7831 27.0539 16.2932C28.1241 15.7675 29.3031 15.4932 30.4964 15.4932C30.5556 15.4932 30.6158 15.4942 30.6742 15.4951C30.7324 15.4942 30.7949 15.4932 30.8544 15.4932C32.0498 15.4932 33.2309 15.7668 34.3045 16.2928C35.2911 16.7816 36.1177 17.5462 36.6841 18.4919C37.2267 19.4217 37.5135 20.4825 37.5135 21.5612C37.5135 21.5923 37.5128 21.6257 37.5128 21.6561C37.5127 21.6821 37.5134 21.7093 37.5134 21.7357C37.5134 22.8246 37.2268 23.8954 36.6838 24.8376C36.1214 25.7999 35.2951 26.5824 34.3048 27.0903C33.2304 27.6308 32.0443 27.9134 30.842 27.9134C30.7864 27.9134 30.7289 27.9125 30.6743 27.9115C30.6174 27.9128 30.5589 27.9137 30.5014 27.9137C29.3031 27.9137 28.1215 27.6289 27.054 27.0836L27.0535 27.0835ZM32.4793 24.7435C32.9838 24.4557 33.3958 24.0104 33.6642 23.4943C33.9375 22.9594 34.0809 22.3651 34.0809 21.7635C34.0809 21.738 34.0804 21.7117 34.08 21.6866C34.0802 21.6688 34.0807 21.6487 34.0807 21.6304C34.0807 21.0302 33.9402 20.4378 33.671 19.9022C33.4051 19.3889 32.9933 18.9643 32.4897 18.6836C31.9273 18.3986 31.3045 18.2497 30.6743 18.2497C30.0441 18.2497 29.4213 18.3986 28.8588 18.6837C28.3539 18.964 27.9416 19.3889 27.6745 19.9021C27.4009 20.435 27.2575 21.0268 27.2575 21.6266C27.2575 21.6519 27.2581 21.6785 27.2585 21.7033C27.2581 21.7285 27.2575 21.7548 27.2575 21.7803C27.2575 22.3819 27.401 22.9762 27.6745 23.5112C27.9426 24.0273 28.3546 24.4557 28.8589 24.7434C29.418 25.0354 30.039 25.1882 30.6692 25.1882C31.2994 25.1882 31.9205 25.0354 32.4793 24.7435Z" fill="white"/>
<path fill-rule="evenodd" clip-rule="evenodd" d="M42.7532 16.0891V25.2722H48.4685V25.2692H49.2914C49.6342 25.2727 49.927 25.3402 49.9879 25.7104L49.9874 25.9931L49.9879 25.9941V26.8809L49.9891 27.4723C49.9282 27.8425 49.6354 27.9101 49.2926 27.9135H48.4698V27.9134H40.281L40.2808 27.9134H40.0754C39.7324 27.91 39.4399 27.8424 39.3789 27.4722L39.3802 26.8214H39.3813L39.3804 16.0914C39.3804 15.6151 39.4162 15.4932 39.9925 15.4932H42.1005C42.6731 15.4932 42.7532 15.5749 42.7532 16.0891Z" fill="white"/>
<path fill-rule="evenodd" clip-rule="evenodd" d="M64.8216 13.3526L58.3948 26.8597V26.8601L58.0778 27.5472C57.939 27.8478 57.6366 27.9332 57.3814 27.9233H57.1303L57.1282 27.9243H55.7899L54.9674 27.9244C54.7122 27.9342 54.4102 27.8488 54.2709 27.5483L54.2668 27.5387L48.6244 16.2579C48.3133 15.6043 48.7391 15.4982 49.2379 15.5073H51.1843C51.6623 15.4996 51.9575 15.5027 52.1519 16.0367L56.3083 24.6481L61.1269 13.1527C61.3838 12.4524 61.6332 12.4132 62.6871 12.423H64.2499C65.1736 12.423 65.2037 12.5493 64.8216 13.3526Z" fill="white"/>
<path d="M69.512 37.3833H19.2588C14.6976 37.3833 11 41.1031 11 45.6917C11 50.2803 14.6976 54.0001 19.2588 54.0001H69.512C74.0731 54.0001 77.7707 50.2803 77.7707 45.6917C77.7707 41.1031 74.0731 37.3833 69.512 37.3833Z" fill="#9143F4"/>
<path d="M22.2414 42.9688H20.1647V48.2818H19.01V42.9688H16.9424V41.9784H22.2414V42.9688ZM27.5951 45.9044C27.5951 45.9823 27.5891 46.0934 27.5772 46.2377H23.8267C23.8924 46.5916 24.0624 46.8738 24.3369 47.0838C24.6174 47.2881 24.9635 47.3903 25.3753 47.3903C25.9004 47.3903 26.333 47.216 26.6732 46.8677L27.2728 47.5614C27.0581 47.8192 26.7865 48.0146 26.4583 48.1464C26.1301 48.2786 25.7601 48.3446 25.3484 48.3446C24.8233 48.3446 24.3608 48.2396 23.961 48.0296C23.5612 47.8192 23.2509 47.5281 23.0301 47.156C22.8153 46.7777 22.7078 46.3516 22.7078 45.8773C22.7078 45.409 22.8123 44.989 23.0211 44.6168C23.236 44.2386 23.5314 43.9442 23.9073 43.7342C24.2832 43.5242 24.7069 43.4192 25.1783 43.4192C25.6438 43.4192 26.0585 43.5242 26.4225 43.7342C26.7925 43.9381 27.0789 44.2296 27.2818 44.6075C27.4907 44.9797 27.5951 45.4122 27.5951 45.9044ZM25.1783 44.3196C24.8203 44.3196 24.516 44.4275 24.2653 44.6436C24.0207 44.8536 23.8715 45.1358 23.8178 45.4901H26.5299C26.4822 45.1418 26.336 44.8597 26.0913 44.6436C25.8467 44.4275 25.5423 44.3196 25.1783 44.3196ZM30.8628 48.3446C30.3675 48.3446 29.923 48.2396 29.5291 48.0296C29.1353 47.8192 28.828 47.5281 28.6072 47.156C28.3864 46.7777 28.276 46.3516 28.276 45.8773C28.276 45.4029 28.3864 44.9797 28.6072 44.6075C28.828 44.2353 29.1323 43.9442 29.5202 43.7342C29.914 43.5242 30.3616 43.4192 30.8628 43.4192C31.3342 43.4192 31.746 43.5149 32.0981 43.7071C32.4561 43.8992 32.7246 44.1753 32.9037 44.5357L32.0444 45.0401C31.9071 44.8179 31.734 44.6525 31.5252 44.5447C31.3223 44.4307 31.0985 44.3736 30.8539 44.3736C30.4362 44.3736 30.0901 44.5114 29.8155 44.7879C29.5411 45.0579 29.4038 45.4212 29.4038 45.8773C29.4038 46.3338 29.5381 46.6999 29.8066 46.9759C30.0811 47.246 30.4302 47.381 30.8539 47.381C31.0985 47.381 31.3223 47.327 31.5252 47.2192C31.734 47.1049 31.9071 46.937 32.0444 46.7149L32.9037 47.2192C32.7187 47.5792 32.4471 47.8585 32.0891 48.0564C31.737 48.2486 31.3283 48.3446 30.8628 48.3446ZM36.5393 43.4192C37.142 43.4192 37.6254 43.596 37.9893 43.9503C38.3534 44.3046 38.5354 44.8297 38.5354 45.5262V48.2818H37.4165V45.6701C37.4165 45.2501 37.318 44.9347 37.1211 44.7247C36.9242 44.5086 36.6437 44.4007 36.2797 44.4007C35.868 44.4007 35.5428 44.5264 35.3041 44.7786C35.0654 45.0247 34.946 45.3823 34.946 45.8505V48.2818H33.8271V41.6001H34.946V44.0314C35.131 43.8331 35.3578 43.6831 35.6263 43.581C35.9008 43.4731 36.2051 43.4192 36.5393 43.4192ZM42.667 43.4192C43.2695 43.4192 43.7531 43.596 44.117 43.9503C44.4809 44.3046 44.6631 44.8297 44.6631 45.5262V48.2818H43.5439V45.6701C43.5439 45.2501 43.4456 44.9347 43.2485 44.7247C43.0519 44.5086 42.7714 44.4007 42.4071 44.4007C41.9956 44.4007 41.6703 44.5264 41.4316 44.7786C41.193 45.0247 41.0736 45.3823 41.0736 45.8505V48.2818H39.9547V43.4731H41.0199V44.0942C41.2049 43.8721 41.4376 43.7042 41.7181 43.5903C41.9985 43.476 42.3148 43.4192 42.667 43.4192ZM48.2743 48.3446C47.7907 48.3446 47.3551 48.2396 46.9674 48.0296C46.5797 47.8192 46.275 47.5281 46.0542 47.156C45.8394 46.7777 45.7322 46.3516 45.7322 45.8773C45.7322 45.4029 45.8394 44.9797 46.0542 44.6075C46.275 44.2353 46.5797 43.9442 46.9674 43.7342C47.3551 43.5242 47.7907 43.4192 48.2743 43.4192C48.7635 43.4192 49.202 43.5242 49.5901 43.7342C49.9778 43.9442 50.2792 44.2353 50.494 44.6075C50.7148 44.9797 50.8253 45.4029 50.8253 45.8773C50.8253 46.3516 50.7148 46.7777 50.494 47.156C50.2792 47.5281 49.9778 47.8192 49.5901 48.0296C49.202 48.2396 48.7635 48.3446 48.2743 48.3446ZM48.2743 47.381C48.6862 47.381 49.0263 47.2431 49.2947 46.967C49.5631 46.6909 49.6973 46.3277 49.6973 45.8773C49.6973 45.4272 49.5631 45.064 49.2947 44.7879C49.0263 44.5114 48.6862 44.3736 48.2743 44.3736C47.8624 44.3736 47.5223 44.5114 47.2539 44.7879C46.9912 45.064 46.8598 45.4272 46.8598 45.8773C46.8598 46.3277 46.9912 46.6909 47.2539 46.967C47.5223 47.2431 47.8624 47.381 48.2743 47.381ZM51.8952 41.6001H53.0139V48.2818H51.8952V41.6001ZM56.6308 48.3446C56.1476 48.3446 55.712 48.2396 55.3239 48.0296C54.9362 47.8192 54.632 47.5281 54.4111 47.156C54.1963 46.7777 54.0887 46.3516 54.0887 45.8773C54.0887 45.4029 54.1963 44.9797 54.4111 44.6075C54.632 44.2353 54.9362 43.9442 55.3239 43.7342C55.712 43.5242 56.1476 43.4192 56.6308 43.4192C57.12 43.4192 57.5589 43.5242 57.9466 43.7342C58.3347 43.9442 58.6357 44.2353 58.8505 44.6075C59.0714 44.9797 59.1818 45.4029 59.1818 45.8773C59.1818 46.3516 59.0714 46.7777 58.8505 47.156C58.6357 47.5281 58.3347 47.8192 57.9466 48.0296C57.5589 48.2396 57.12 48.3446 56.6308 48.3446ZM56.6308 47.381C57.0427 47.381 57.3828 47.2431 57.6512 46.967C57.9196 46.6909 58.0542 46.3277 58.0542 45.8773C58.0542 45.4272 57.9196 45.064 57.6512 44.7879C57.3828 44.5114 57.0427 44.3736 56.6308 44.3736C56.219 44.3736 55.8788 44.5114 55.6104 44.7879C55.3477 45.064 55.2167 45.4272 55.2167 45.8773C55.2167 46.3277 55.3477 46.6909 55.6104 46.967C55.8788 47.2431 56.219 47.381 56.6308 47.381ZM64.9958 43.4731V47.552C64.9958 49.2451 64.1366 50.0916 62.4178 50.0916C61.9584 50.0916 61.5228 50.0316 61.1109 49.9116C60.6995 49.7973 60.3593 49.6294 60.0905 49.4072L60.5919 48.5607C60.8006 48.7347 61.0634 48.8729 61.3797 48.9751C61.7017 49.0829 62.0269 49.1372 62.3554 49.1372C62.8805 49.1372 63.2653 49.0168 63.5099 48.7768C63.7546 48.5368 63.8771 48.1707 63.8771 47.6781V47.426C63.6861 47.6364 63.4531 47.7953 63.1787 47.9035C62.9042 48.0114 62.6028 48.0653 62.2748 48.0653C61.821 48.0653 61.4095 47.9696 61.0396 47.7775C60.6753 47.5792 60.3859 47.3031 60.1711 46.9488C59.9624 46.5949 59.858 46.1894 59.858 45.7333C59.858 45.2768 59.9624 44.8747 60.1711 44.5264C60.3859 44.1725 60.6753 43.8992 61.0396 43.7071C61.4095 43.5149 61.821 43.4192 62.2748 43.4192C62.6209 43.4192 62.9341 43.476 63.2145 43.5903C63.5011 43.7042 63.7397 43.8781 63.9307 44.1125V43.4731H64.9958ZM62.4448 47.111C62.8684 47.111 63.2145 46.9849 63.4829 46.7327C63.7574 46.4744 63.8948 46.1416 63.8948 45.7333C63.8948 45.3312 63.7574 45.004 63.4829 44.7518C63.2145 44.4997 62.8684 44.3736 62.4448 44.3736C62.0152 44.3736 61.663 44.4997 61.3886 44.7518C61.1202 45.004 60.9856 45.3312 60.9856 45.7333C60.9856 46.1416 61.1202 46.4744 61.3886 46.7327C61.663 46.9849 62.0152 47.111 62.4448 47.111ZM70.9424 43.4731L68.7046 48.669C68.4958 49.1912 68.2419 49.5572 67.9437 49.7673C67.6455 49.9833 67.2844 50.0916 66.8605 50.0916C66.6219 50.0916 66.3861 50.0527 66.1536 49.9744C65.9207 49.8966 65.7296 49.7883 65.5805 49.6505L66.0283 48.8218C66.1355 48.924 66.2608 49.0051 66.4043 49.0651C66.5534 49.1251 66.7025 49.1551 66.8516 49.1551C67.0486 49.1551 67.2098 49.104 67.3352 49.0018C67.4661 48.9001 67.5854 48.729 67.693 48.4886L67.7736 48.2996L65.6881 43.4731H66.8516L68.3556 47.0299L69.868 43.4731H70.9424Z" fill="white"/>
</svg>
